<mxfile host="app.diagrams.net" modified="2023-04-09T02:45:49.020Z" agent="Mozilla/5.0 (Windows NT 10.0; Win64; x64) AppleWebKit/537.36 (KHTML, like Gecko) Chrome/111.0.0.0 Safari/537.36" etag="EZ2man_DXDJ5x_x1iHvb" version="21.1.5" type="device">
  <diagram id="C5RBs43oDa-KdzZeNtuy" name="Page-1">
    <mxGraphModel dx="1050" dy="602" grid="1" gridSize="10" guides="1" tooltips="1" connect="1" arrows="1" fold="1" page="1" pageScale="1" pageWidth="827" pageHeight="1169" math="0" shadow="0">
      <root>
        <mxCell id="WIyWlLk6GJQsqaUBKTNV-0" />
        <mxCell id="WIyWlLk6GJQsqaUBKTNV-1" parent="WIyWlLk6GJQsqaUBKTNV-0" />
        <mxCell id="Yn8cRVitVgrjA7l2xojt-5" style="edgeStyle=orthogonalEdgeStyle;rounded=0;orthogonalLoop=1;jettySize=auto;html=1;" edge="1" parent="WIyWlLk6GJQsqaUBKTNV-1" source="Yn8cRVitVgrjA7l2xojt-0" target="Yn8cRVitVgrjA7l2xojt-2">
          <mxGeometry relative="1" as="geometry" />
        </mxCell>
        <mxCell id="Yn8cRVitVgrjA7l2xojt-0" value="" style="strokeWidth=2;html=1;shape=mxgraph.flowchart.start_2;whiteSpace=wrap;fillColor=#76608a;fontColor=#ffffff;strokeColor=#432D57;" vertex="1" parent="WIyWlLk6GJQsqaUBKTNV-1">
          <mxGeometry x="350" y="30" width="66" height="70" as="geometry" />
        </mxCell>
        <mxCell id="Yn8cRVitVgrjA7l2xojt-1" value="" style="strokeWidth=2;html=1;shape=mxgraph.flowchart.start_2;whiteSpace=wrap;fillColor=#76608a;fontColor=#ffffff;strokeColor=#432D57;" vertex="1" parent="WIyWlLk6GJQsqaUBKTNV-1">
          <mxGeometry x="368.5" y="480" width="73" height="80" as="geometry" />
        </mxCell>
        <mxCell id="Yn8cRVitVgrjA7l2xojt-6" style="edgeStyle=orthogonalEdgeStyle;rounded=0;orthogonalLoop=1;jettySize=auto;html=1;" edge="1" parent="WIyWlLk6GJQsqaUBKTNV-1" source="Yn8cRVitVgrjA7l2xojt-2" target="Yn8cRVitVgrjA7l2xojt-3">
          <mxGeometry relative="1" as="geometry" />
        </mxCell>
        <mxCell id="Yn8cRVitVgrjA7l2xojt-2" value="&quot;ingrese las horas trabajadas: &quot; .horastrabajadas" style="shape=parallelogram;html=1;strokeWidth=2;perimeter=parallelogramPerimeter;whiteSpace=wrap;rounded=1;arcSize=12;size=0.23;fillColor=#f5f5f5;fontColor=#333333;strokeColor=#666666;" vertex="1" parent="WIyWlLk6GJQsqaUBKTNV-1">
          <mxGeometry x="190" y="140" width="408" height="60" as="geometry" />
        </mxCell>
        <mxCell id="Yn8cRVitVgrjA7l2xojt-7" style="edgeStyle=orthogonalEdgeStyle;rounded=0;orthogonalLoop=1;jettySize=auto;html=1;" edge="1" parent="WIyWlLk6GJQsqaUBKTNV-1" source="Yn8cRVitVgrjA7l2xojt-3" target="Yn8cRVitVgrjA7l2xojt-4">
          <mxGeometry relative="1" as="geometry" />
        </mxCell>
        <mxCell id="Yn8cRVitVgrjA7l2xojt-3" value="sueldo = horastrabajadas * 10" style="rounded=1;whiteSpace=wrap;html=1;absoluteArcSize=1;arcSize=14;strokeWidth=2;fillColor=#f5f5f5;fontColor=#333333;strokeColor=#666666;" vertex="1" parent="WIyWlLk6GJQsqaUBKTNV-1">
          <mxGeometry x="272" y="230" width="266" height="100" as="geometry" />
        </mxCell>
        <mxCell id="Yn8cRVitVgrjA7l2xojt-8" style="edgeStyle=orthogonalEdgeStyle;rounded=0;orthogonalLoop=1;jettySize=auto;html=1;" edge="1" parent="WIyWlLk6GJQsqaUBKTNV-1" source="Yn8cRVitVgrjA7l2xojt-4" target="Yn8cRVitVgrjA7l2xojt-1">
          <mxGeometry relative="1" as="geometry" />
        </mxCell>
        <mxCell id="Yn8cRVitVgrjA7l2xojt-4" value="&quot;El sueldo del empleado es de &quot; .sueldo &quot;pesos&quot;" style="strokeWidth=2;html=1;shape=mxgraph.flowchart.document2;whiteSpace=wrap;size=0.25;fillColor=#f5f5f5;fontColor=#333333;strokeColor=#666666;" vertex="1" parent="WIyWlLk6GJQsqaUBKTNV-1">
          <mxGeometry x="303.25" y="360" width="203.5" height="90" as="geometry" />
        </mxCell>
        <mxCell id="Yn8cRVitVgrjA7l2xojt-9" style="edgeStyle=orthogonalEdgeStyle;rounded=0;orthogonalLoop=1;jettySize=auto;html=1;" edge="1" parent="WIyWlLk6GJQsqaUBKTNV-1" source="Yn8cRVitVgrjA7l2xojt-10" target="Yn8cRVitVgrjA7l2xojt-13">
          <mxGeometry relative="1" as="geometry" />
        </mxCell>
        <mxCell id="Yn8cRVitVgrjA7l2xojt-10" value="" style="strokeWidth=2;html=1;shape=mxgraph.flowchart.start_2;whiteSpace=wrap;fillColor=#76608a;fontColor=#ffffff;strokeColor=#432D57;" vertex="1" parent="WIyWlLk6GJQsqaUBKTNV-1">
          <mxGeometry x="1000" y="270" width="66" height="70" as="geometry" />
        </mxCell>
        <mxCell id="Yn8cRVitVgrjA7l2xojt-11" value="" style="strokeWidth=2;html=1;shape=mxgraph.flowchart.start_2;whiteSpace=wrap;fillColor=#76608a;fontColor=#ffffff;strokeColor=#432D57;" vertex="1" parent="WIyWlLk6GJQsqaUBKTNV-1">
          <mxGeometry x="1018.5" y="720" width="73" height="80" as="geometry" />
        </mxCell>
        <mxCell id="Yn8cRVitVgrjA7l2xojt-12" style="edgeStyle=orthogonalEdgeStyle;rounded=0;orthogonalLoop=1;jettySize=auto;html=1;" edge="1" parent="WIyWlLk6GJQsqaUBKTNV-1" source="Yn8cRVitVgrjA7l2xojt-13" target="Yn8cRVitVgrjA7l2xojt-15">
          <mxGeometry relative="1" as="geometry" />
        </mxCell>
        <mxCell id="Yn8cRVitVgrjA7l2xojt-13" value="&quot;ingrese las horas trabajadas: &quot; .horastrabajadas" style="shape=parallelogram;html=1;strokeWidth=2;perimeter=parallelogramPerimeter;whiteSpace=wrap;rounded=1;arcSize=12;size=0.23;fillColor=#f5f5f5;fontColor=#333333;strokeColor=#666666;" vertex="1" parent="WIyWlLk6GJQsqaUBKTNV-1">
          <mxGeometry x="840" y="380" width="408" height="60" as="geometry" />
        </mxCell>
        <mxCell id="Yn8cRVitVgrjA7l2xojt-14" style="edgeStyle=orthogonalEdgeStyle;rounded=0;orthogonalLoop=1;jettySize=auto;html=1;" edge="1" parent="WIyWlLk6GJQsqaUBKTNV-1" source="Yn8cRVitVgrjA7l2xojt-15" target="Yn8cRVitVgrjA7l2xojt-17">
          <mxGeometry relative="1" as="geometry" />
        </mxCell>
        <mxCell id="Yn8cRVitVgrjA7l2xojt-15" value="sueldo = horastrabajadas * 10" style="rounded=1;whiteSpace=wrap;html=1;absoluteArcSize=1;arcSize=14;strokeWidth=2;fillColor=#f5f5f5;fontColor=#333333;strokeColor=#666666;" vertex="1" parent="WIyWlLk6GJQsqaUBKTNV-1">
          <mxGeometry x="922" y="470" width="266" height="100" as="geometry" />
        </mxCell>
        <mxCell id="Yn8cRVitVgrjA7l2xojt-16" style="edgeStyle=orthogonalEdgeStyle;rounded=0;orthogonalLoop=1;jettySize=auto;html=1;" edge="1" parent="WIyWlLk6GJQsqaUBKTNV-1" source="Yn8cRVitVgrjA7l2xojt-17" target="Yn8cRVitVgrjA7l2xojt-11">
          <mxGeometry relative="1" as="geometry" />
        </mxCell>
        <mxCell id="Yn8cRVitVgrjA7l2xojt-17" value="&quot;El sueldo del empleado es de &quot; .sueldo &quot;pesos&quot;" style="strokeWidth=2;html=1;shape=mxgraph.flowchart.document2;whiteSpace=wrap;size=0.25;fillColor=#f5f5f5;fontColor=#333333;strokeColor=#666666;" vertex="1" parent="WIyWlLk6GJQsqaUBKTNV-1">
          <mxGeometry x="953.25" y="600" width="203.5" height="90" as="geometry" />
        </mxCell>
      </root>
    </mxGraphModel>
  </diagram>
</mxfile>
